<svg id="Layer_1" enable-background="new 0 0 512 512" height="512" viewBox="0 0 512 512" width="512" xmlns="http://www.w3.org/2000/svg"><g><g><path d="m447.122 239.017c-44.89-27.452-158.432-14.97-158.432 27.285 0 33.996 71.95 46.506 96.079 46.349 0 0-18.534 54.013-81.493 52.549-132.893-3.091-139.048-210.78-.046-229.502 62.887-8.47 102.137 29.809 127.788 9.043 21.634-17.513 11.855-60.284-36.213-99.861-35.662-29.364-80.502-44.895-128.129-44.88-124.688.039-226.665 116.425-224.402 256-2.263 139.575 99.713 255.961 224.402 256 118.079.037 203.086-97.352 203.086-224.663 0-12.794.258-34.318-22.64-48.32z" fill="#a0d2ff"/></g><g fill="#82c4ff"><path d="m353.598 44.879c48.069 39.578 57.847 82.348 36.213 99.861-.826.669-1.668 1.274-2.523 1.824 17.929 4.914 32.203 7.507 43.73-1.824 21.634-17.513 11.855-60.284-36.213-99.861-35.662-29.363-80.502-44.894-128.129-44.879-6.759.002-13.446.366-20.059 1.037 39.677 3.908 76.65 18.869 106.981 43.842z"/><path d="m447.122 239.017c-20.586-12.589-55.606-16.774-87.496-13.547 17.964 1.884 34.496 6.336 46.288 13.547 22.898 14.003 22.64 35.527 22.64 48.32 0 119.625-75.056 212.824-182.077 223.611 6.658.68 13.392 1.05 20.198 1.052 118.08.037 203.086-97.352 203.086-224.663.001-12.794.259-34.318-22.639-48.32z"/><path d="m262.023 135.697c-139.002 18.722-132.847 226.411.046 229.502 8.112.189 15.48-.549 22.173-1.968-113.604-21.398-113.041-208.093 17.264-227.281-12.011-1.68-25.129-2.186-39.483-.253z"/></g><path d="m87.076 207.237c-.549 0-1.107-.059-1.665-.182-4.168-.915-6.804-5.036-5.888-9.204.631-2.874 16.049-70.927 66.74-116.866 3.163-2.865 8.049-2.624 10.914.537 2.865 3.162 2.625 8.048-.537 10.914-47.073 42.659-61.881 108.075-62.025 108.731-.793 3.61-3.99 6.07-7.539 6.07z" fill="#fff"/></g></svg>